<svg id="Capa_1" data-name="Capa 1" xmlns="http://www.w3.org/2000/svg" xmlns:xlink="http://www.w3.org/1999/xlink" viewBox="0 0 72.43 63.22"><defs><style>.cls-1{fill:none;}.cls-2{clip-path:url(#clip-path);}.cls-3{fill:#fff;}</style><clipPath id="clip-path" transform="translate(-367.55 -200.88)"><rect class="cls-1" x="367.25" y="200.88" width="72.75" height="63.22"/></clipPath></defs><title>ico_libro</title><g class="cls-2"><path class="cls-3" d="M404,264.1h0c-1.92-.15-34.66-24.18-35.07-27.19-.39-2.85,2.2-8.81,2.31-9.07a.37.37,0,0,1,.24-.2.36.36,0,0,1,.3.07c11.91,9.5,30.09,23.69,31.71,24.14,2.07-.59,28.53-14.62,31.77-16.81-1.31-.72-4.5-2.6-4.66-2.69a.35.35,0,0,1,.36-.61s4.31,2.53,5.05,2.91a.38.38,0,0,1,.21.38c0,.26-.1.74-15.93,9.08-6.47,3.42-15.93,8.29-16.7,8.44-.34.07-1,.19-16.74-12.08-6.79-5.27-13.53-10.63-15.14-11.92-.59,1.42-2.39,6-2.08,8.27.34,2.48,32.52,26.21,34.43,26.58,1.63-.09,31.71-17,34.6-19.4a14.35,14.35,0,0,0-3.25-1,.35.35,0,1,1,.13-.69c1,.2,3.5.74,3.91,1.43a.4.4,0,0,1,0,.42c-1,1.61-33.56,19.9-35.42,19.9" transform="translate(-367.55 -200.88)"/><path class="cls-3" d="M403.87,261.44a.34.34,0,0,1-.31-.19.35.35,0,0,1,.14-.48L435,243.87c-1.44-2-.76-7.31-.68-7.94a.35.35,0,0,1,.4-.3.34.34,0,0,1,.3.39c-.24,1.75-.57,6.53.77,7.68a.34.34,0,0,1,.12.3.36.36,0,0,1-.18.28L404,261.4a.59.59,0,0,1-.17,0" transform="translate(-367.55 -200.88)"/><path class="cls-3" d="M404,264.1a.36.36,0,0,1-.32-.21c-1.54-3.6-.57-11.4-.53-11.73a.34.34,0,0,1,.39-.3.36.36,0,0,1,.31.39c0,.08-1,7.94.48,11.36a.35.35,0,0,1-.19.46.32.32,0,0,1-.14,0" transform="translate(-367.55 -200.88)"/><path class="cls-3" d="M406.53,243.3c-3.19,0-37.39-15.21-38.11-17s2.12-8.71,2.16-8.78a.34.34,0,0,1,.46-.18.36.36,0,0,1,.18.47c-.82,1.84-2.66,7-2.15,8.22,1.1,1.58,31,14.83,36.69,16.37a14.19,14.19,0,0,1-1.55-11.22l-28-12.18a.34.34,0,0,1-.18-.46.35.35,0,0,1,.46-.18l28.28,12.3a.35.35,0,0,1,.2.42,13.6,13.6,0,0,0,1.84,11.6.36.36,0,0,1,0,.37.34.34,0,0,1-.32.2" transform="translate(-367.55 -200.88)"/><path class="cls-3" d="M404.63,231.38a.34.34,0,0,1-.32-.21.35.35,0,0,1,.17-.46L431,218.91a.36.36,0,0,1,.46.18.36.36,0,0,1-.17.47l-26.51,11.79a.32.32,0,0,1-.14,0" transform="translate(-367.55 -200.88)"/><path class="cls-3" d="M406.53,243.3a.35.35,0,0,1-.32-.2.36.36,0,0,1,.17-.47c10-4.64,24.83-11.57,26.86-12.65a12.11,12.11,0,0,0-2.44-.76.35.35,0,0,1-.27-.42.36.36,0,0,1,.42-.27c3,.66,3.1,1.19,3.14,1.37a.52.52,0,0,1-.2.52c-.65.52-24.49,11.59-27.21,12.85l-.15,0" transform="translate(-367.55 -200.88)"/><path class="cls-3" d="M405.64,241.27a.35.35,0,0,1-.32-.2.36.36,0,0,1,.18-.47l24.79-11.27a14,14,0,0,1-.51-9.45.37.37,0,0,1,.45-.22.35.35,0,0,1,.22.45c-1.58,4.51.6,9.2.62,9.25a.36.36,0,0,1,0,.27.35.35,0,0,1-.18.2l-25.11,11.41-.15,0" transform="translate(-367.55 -200.88)"/><path class="cls-3" d="M409.21,226.13c-3.51,0-39.7-8.4-40.66-9-1.3-.82-1.28-5.89-.25-7.82a.35.35,0,0,1,.4-.18L410.29,219a.35.35,0,0,1,.23.18.39.39,0,0,1,0,.3s-1.71,4.18-.78,6.05a.4.4,0,0,1,0,.37.6.6,0,0,1-.54.21m-40.4-16.25c-.88,2-.58,6.21.12,6.65,1.21.62,35.44,8.56,40,8.89-.56-1.86.39-4.76.77-5.81Z" transform="translate(-367.55 -200.88)"/><path class="cls-3" d="M409.45,226.06a.36.36,0,0,1-.34-.25.35.35,0,0,1,.24-.44l29.57-9-1.55-1.36a.35.35,0,0,1,0-.49.36.36,0,0,1,.5,0l2,1.78a.33.33,0,0,1,.11.34.35.35,0,0,1-.24.26L409.55,226l-.1,0" transform="translate(-367.55 -200.88)"/><path class="cls-3" d="M411.86,224a1.32,1.32,0,0,1-1.19-.59c-.77-1.18.35-3.8.48-4.09a.36.36,0,0,1,.47-.18.35.35,0,0,1,.18.46c-.44,1-1,2.78-.54,3.43a.62.62,0,0,0,.6.26c.7-.09,15.36-4.65,25.22-7.76l-.59-4.65a.34.34,0,0,1,.3-.39.35.35,0,0,1,.4.3l.63,5a.35.35,0,0,1-.24.38C431.71,218,412.5,224,411.86,224" transform="translate(-367.55 -200.88)"/><path class="cls-3" d="M410.21,219.72a.37.37,0,0,1-.34-.24.35.35,0,0,1,.23-.45c1-.34,22.21-7.44,26.89-9-.73-.21-1.83-.49-2.86-.73-1.28,0-9.89-1.76-26.93-5.3-6-1.24-11.58-2.41-12-2.44-.76.09-16.28,5-26.51,8.23a.36.36,0,0,1-.44-.23.34.34,0,0,1,.23-.44c4.33-1.38,26-8.26,26.73-8.26.29,0,3.55.67,12.11,2.45,10.28,2.13,25.8,5.38,26.77,5.29a.22.22,0,0,1,.14,0c4.11,1,4.11,1.14,4.11,1.46a.37.37,0,0,1-.31.37c-.48.13-18.36,6.11-27.74,9.25l-.11,0" transform="translate(-367.55 -200.88)"/></g></svg>